<svg xmlns="http://www.w3.org/2000/svg" width="128" height="128" viewBox="0 0 128 128" role="img" aria-label="NORMAL risk core production candidate">
  <defs>
    <radialGradient id="shell" cx=".3" cy=".23" r=".85"><stop stop-color="#ff9f88"/><stop offset=".45" stop-color="#c85449"/><stop offset="1" stop-color="#672d36"/></radialGradient>
    <radialGradient id="core"><stop stop-color="#ffd3c4"/><stop offset=".35" stop-color="#ff8e72"/><stop offset="1" stop-color="#5e2732"/></radialGradient>
    <filter id="shadow" x="-60%" y="-60%" width="240%" height="240%"><feGaussianBlur stdDeviation="4"/></filter>
  </defs>
  <ellipse cx="68" cy="96" rx="31" ry="10" fill="#000" opacity=".38" filter="url(#shadow)"/>
  <path d="M64 19c25 0 44 19 44 44 0 26-19 46-44 46S20 89 20 63c0-25 19-44 44-44z" fill="url(#shell)" stroke="#f5ad9a" stroke-width="3"/>
  <circle cx="64" cy="64" r="20" fill="url(#core)" stroke="#7d3440" stroke-width="2"/>
  <g fill="none" stroke="#3a1a22" stroke-width="4.5" stroke-linecap="round" stroke-linejoin="round">
    <path d="M33 33l15 15-5 15 12 9"/><path d="M98 42L82 52l5 15-12 9"/><path d="M38 91l13-12 14 4 7 17"/>
  </g>
  <g fill="none" stroke="#ffc0ad" stroke-opacity=".4" stroke-width="1.5" stroke-linecap="round">
    <path d="M34 32l14 15"/><path d="M98 41L83 51"/><path d="M39 90l12-11"/>
  </g>
  <path d="M26 52L14 45l3 18zM108 54l14-8-3 19zM70 19l7-12 6 15z" fill="#d45d4e" stroke="#ffad98" stroke-opacity=".65"/>
  <path d="M31 37c8-11 18-16 31-17" fill="none" stroke="#fff0e9" stroke-opacity=".55" stroke-width="3" stroke-linecap="round"/>
</svg>
