<svg xmlns="http://www.w3.org/2000/svg" width="320" height="480" viewBox="0 0 320 480"><defs><linearGradient id="j" x1="0" y1="0" x2="1" y2="1"><stop stop-color="#4d6882"/><stop offset="1" stop-color="#2e4156"/></linearGradient><filter id="s"><feDropShadow dx="0" dy="10" stdDeviation="8" flood-color="#213443" flood-opacity=".28"/></filter></defs><ellipse cx="160" cy="443" rx="91" ry="20" fill="#1b3b49" opacity=".17"/><g filter="url(#s)"><path d="M116 327L92 431h40l31-104Z" fill="#344758"/><path d="M198 327l30 104h-40l-29-104Z" fill="#2b3b4c"/><path d="M72 427h65v29H62q-8-18 10-29Zm111 0h65q18 11 10 29h-75Z" fill="#22323d"/></g><path d="M86 302q8-68 74-74q70 5 77 74l-10 55H96Z" fill="url(#j)"/><path d="M97 290h130" stroke="#eceaad" stroke-width="10"/><path d="M96 270l-39 61M225 270l45 33" stroke="#d9a17d" stroke-width="23" stroke-linecap="round"/><rect x="142" y="208" width="36" height="40" rx="12" fill="#d9a17d"/><ellipse cx="160" cy="164" rx="57" ry="64" fill="#d9a17d"/><path d="M108 151q15-59 53-62q45 3 56 62l-17 14q-20-29-76-2Z" fill="#30373d"/><circle cx="140" cy="164" r="5" fill="#25323a"/><circle cx="181" cy="164" r="5" fill="#25323a"/><path d="M141 199q20-6 40 0" fill="none" stroke="#8b5349" stroke-width="5" stroke-linecap="round"/><g filter="url(#s)"><path d="M93 117q8-63 67-67q64 4 71 67Z" fill="#fbfcfc"/><rect x="84" y="109" width="153" height="20" rx="10" fill="#fbfcfc"/><path d="M114 106h92" stroke="#405b78" stroke-width="7"/></g><g transform="translate(247 193) rotate(-4)"><rect width="31" height="58" rx="7" fill="#243541"/><rect x="4" y="6" width="23" height="39" rx="4" fill="#72b0cd"/></g><path d="M257 204q18-16 27-37" stroke="#d9a17d" stroke-width="13" stroke-linecap="round"/></svg>