<svg xmlns="http://www.w3.org/2000/svg" width="320" height="480" viewBox="0 0 320 480"><defs><linearGradient id="j" x1="0" y1="0" x2="1" y2="1"><stop stop-color="#6c7e90"/><stop offset="1" stop-color="#354754"/></linearGradient><linearGradient id="skin" x1="0" y1="0" x2="1" y2="1"><stop stop-color="#ebba98"/><stop offset="1" stop-color="#d39572"/></linearGradient><filter id="s" x="-40%" y="-40%" width="190%" height="200%"><feDropShadow dx="0" dy="9" stdDeviation="7" flood-color="#253640" flood-opacity=".27"/></filter></defs><ellipse cx="160" cy="443" rx="70" ry="18" fill="#1c3a45" opacity=".16"/><g filter="url(#s)"><path d="M138 328l-15 102h28l11-102Z" fill="#3a4b56"/><path d="M182 328l15 102h-28l-11-102Z" fill="#30414c"/><path d="M107 427h46v25h-54q-6-15 8-25Zm60 0h46q14 9 8 25h-54Z" fill="#25343d"/></g><path d="M117 300q6-58 43-63q40 4 46 63l-7 52h-76Z" fill="url(#j)"/><path d="M124 289h74" stroke="#ebe9ae" stroke-width="9"/><path d="M136 301l10 51M185 301l-10 51" stroke="#d4daa3" stroke-width="7"/><path d="M120 270l-22 58M200 270l21 56" stroke="url(#skin)" stroke-width="18" stroke-linecap="round"/><rect x="146" y="208" width="28" height="35" rx="10" fill="url(#skin)"/><ellipse cx="160" cy="165" rx="44" ry="59" fill="url(#skin)"/><path d="M121 154q8-60 40-62q36 2 41 62l-13 24q-15-42-56-3Z" fill="#33383d"/><circle cx="144" cy="165" r="4" fill="#27343c"/><circle cx="176" cy="165" r="4" fill="#27343c"/><g fill="none" stroke="#26353e" stroke-width="4"><rect x="129" y="153" width="28" height="20" rx="6"/><rect x="164" y="153" width="28" height="20" rx="6"/><path d="M157 162h7"/></g><path d="M146 192q14-4 28 0" fill="none" stroke="#8d554a" stroke-width="4" stroke-linecap="round"/><g filter="url(#s)"><path d="M103 119q7-59 57-62q54 3 60 62Z" fill="#fbfcfc"/><rect x="96" y="111" width="130" height="18" rx="9" fill="#fbfcfc"/><path d="M121 107h79" stroke="#68798a" stroke-width="7"/><path d="M160 64v39" stroke="#d7e1e5" stroke-width="5"/></g><g transform="translate(209 280)" filter="url(#s)"><rect width="50" height="72" rx="5" fill="#d7b474" stroke="#4e5b66" stroke-width="4"/><path d="M8 17h34M8 30h34M8 43h25" stroke="#f7eed5" stroke-width="4"/></g><g transform="translate(105 304)" filter="url(#s)"><rect width="25" height="35" rx="5" fill="#263a45"/><circle cx="12" cy="10" r="5" fill="#8bc3d1"/></g></svg>